<?xml version="1.0" encoding="utf-8"?>
<!-- Generator: Adobe Illustrator 18.0.0, SVG Export Plug-In . SVG Version: 6.00 Build 0)  -->
<!DOCTYPE svg PUBLIC "-//W3C//DTD SVG 1.1//EN" "http://www.w3.org/Graphics/SVG/1.1/DTD/svg11.dtd">
<svg version="1.1" id="Layer_1" xmlns="http://www.w3.org/2000/svg" xmlns:xlink="http://www.w3.org/1999/xlink" x="0px" y="0px"
	 viewBox="0 0 164 51.6" enable-background="new 0 0 164 51.6" xml:space="preserve">
<g>
	<g>
		<path fill="#FFFFFF" d="M3,11c0,0,2.4-2.3,2.7-3.3c0,0,2.7-0.7,5.7,1.2C11.4,8.9,9.6,11.8,3,11z"/>
		<path fill="#FFFFFF" d="M6.4,6.2C7,6.2,7.4,2.3,10.5,0h13.2c0,0-2.4,0.4-4.8,2.8s-5.5,2.3-7.4,2.3S8.1,5,6.4,6.2z"/>
		<path fill="#FFFFFF" d="M3.9,24.8c0,0,4.9-11.8,13.4-15.9C17.3,8.9,7.6,17.9,3.9,24.8z"/>
		<path fill="#FFFFFF" d="M19.6,5.4c-0.1,0,2.2-0.5,6.7-3.7c2.9-2,3.8-1.6,3.8-1.6C29.2,0,23.3,5.9,19.6,5.4z"/>
		<path fill="#FFFFFF" d="M25.6,10.8c0,0,0.4,0.4,0.7,0c0.4-0.4,2.1-0.8,2.8-0.2s3.7-2.7,4.1-5.5C33.7,2.3,37,0,37,0
			s-4.6,0.1-7.7,2.4s-5,3.1-5,3.1s4.1,0.4,4.8-0.5c0.4-0.3,0.8,0.3,0.4,0.5C29.2,5.9,25.6,8.5,25.6,10.8z"/>
		<path fill="#FFFFFF" d="M24.8,9.8c0,0-3.6-3.4-8.1,1.6S4.3,29,0,31.4h10.3c0,0,1.4,0.3,3.9-2.9s7.1-15.3,7.6-16.4
			C22.2,10.9,24,9.5,24.8,9.8z"/>
		<path fill="#FFFFFF" d="M24.8,15.1c0,0,0.3-0.6,3.4-0.4c1,0.2,1.9,0.7,1.9,2.1c0,1.2,0.9-0.3,1-0.4c0.4-0.3,0.6-1.8,7.3-1.7
			c0,0-3,2.5-2.9,3.4c0,0-3.2-2.1-4.8,0.5c-2.1,3.3-3.8,8.2-4,9.2c-0.2,0.9-0.3,3.2,0.5,3.5h-5.9c0,0,2.3-5.4,3.6-9.6
			C26.1,17.7,26.5,16.3,24.8,15.1z"/>
		<path fill="#FFFFFF" d="M46.6,27.9c0-1.1,5.3-13.3,5.3-13.3s-2.5,0.6-4.1,0.6c-1.7-0.1-3.9-0.6-6.3,0.5c-4.3,2.2-5.7,4.4-7.5,7.8
			c-1.7,3.4-1.1,7.9,1.9,7.9c3,0,3.9-1.4,5.2-2.8c1.3-1.4,1.5-0.6,1.6-0.2c0.1,0.4-0.4,2.9,1.1,2.9s3.7,0,3.7,0
			C46.7,30.9,46.6,29.1,46.6,27.9z M45.8,18.8c-0.2,0.8-2,8-5.9,9.6c-3.5,0.7-3.3-4-1.7-6.9c0,0,2.1-5.1,6.5-4.7
			C46.4,17.1,46,18.1,45.8,18.8z"/>
		<path fill="#FFFFFF" d="M64.1,28.3c0.7-2,7.3-19.5,7.3-19.5h-6.3c0,0,1.4,0.3,1,1.7c-0.4,1.4-1,3.6-1,3.6s-0.3,1.4-2.1,1.2
			c-1.8-0.2-6-0.5-9.8,4.7s-3.4,9.8-1.3,11.1c2.1,1.3,3.9-0.3,7-2.5c0,0,0.8-0.7,0.8,0c0,0.7,0.1,2.7,0.7,3.1c0.5,0.4,4.3,0,4.3,0
			S63.4,30.3,64.1,28.3z M63.2,18.8c-0.2,0.8-2,8-5.9,9.6c-3.5,0.7-3.3-4-1.7-6.9c0,0,2.1-5.1,6.5-4.7
			C63.7,17.1,63.4,18.1,63.2,18.8z"/>
		<path fill="#FFFFFF" d="M146.5,28.3c0.7-2,7.3-19.5,7.3-19.5h-6.3c0,0,1.4,0.3,1,1.7c-0.4,1.4-1,3.6-1,3.6s-0.3,1.4-2.1,1.2
			c-1.8-0.2-6-0.5-9.8,4.7s-3.4,9.8-1.3,11.1c2.1,1.3,3.9-0.3,7-2.5c0,0,0.8-0.7,0.8,0c0,0.7,0.1,2.7,0.7,3.1c0.5,0.4,4.3,0,4.3,0
			S145.8,30.3,146.5,28.3z M145.6,18.8c-0.2,0.8-2,8-5.9,9.6c-3.5,0.7-3.3-4-1.7-6.9c0,0,2.1-5.1,6.5-4.7
			C146.1,17.1,145.8,18.1,145.6,18.8z"/>
		<path fill="#FFFFFF" d="M76.3,15.7c-4.4,2.4-11.4,8.6-7.6,14.1s12-2,12.7-3.6l-0.9-1.4c0,0-4.2,5.9-7.2,4.8c-3-1.1-1-5.1-1-5.1
			s6.4-0.4,10-4.9C84.6,16.1,80.7,13.2,76.3,15.7z M74.4,22.7c-2.1,0.8-1.2-1.2-1.2-1.2c0.6-1.9,4.1-5.9,6.2-4.2
			C80.2,20.2,76.5,21.9,74.4,22.7z"/>
		<path fill="#FFFFFF" d="M83.9,15h3.3c0,0,1.4,0,1.8,1.8c0.4,1.8,0.4,9.1,0.4,9.1s0.1,0.6,0.6,0c0.5-0.6,4.6-7.4,4.6-7.4
			s1.1-1.6-1.2-3.4h3.4c0,0,1.6,0,1.6,1.4c0,1.4,0.4,9.7,0.4,9.7s0.3,0.9,0.8,0.3s4.5-7.3,4.5-7.3s1-1.7-1.3-3.2l3.8-1.8
			c0,0,1.3,1,0.7,2.2c-0.7,1.2-8.2,15.1-8.2,15.1h-3.7L95,23.2c0,0,0.1-1.6-0.9,0s-5.1,8.5-5.1,8.5h-3c0,0-0.2-10.8-0.5-12.6
			C85.3,17.3,84.9,15.7,83.9,15z"/>
		<path fill="#FFFFFF" d="M109.8,15.4c0,0-0.4,0.3,0,0.6c0.4,0.3,1.1-0.1,0.4,1.8c-0.7,1.9-4.7,12.6-4.6,13.1
			c0.1,0.5-0.1,0.5,0.5,0.7c0.6,0.1,4.4,0,4.4,0s0.6,0.1,0.3-0.2c-0.3-0.3-0.8-1.1-0.3-2.4s3.8-11.1,3.8-11.1s0.4-2.6-1.2-2.6
			C110.9,15.1,110.2,15,109.8,15.4z"/>
		<path fill="#FFFFFF" d="M112.8,8.6c0,0,0.3,2.6-0.3,3.4l3.5,0.3l1.7-3.3L112.8,8.6z"/>
		<path fill="#FFFFFF" d="M118.4,15.1c0,0,0.6-0.2,1.3-0.3s3.1-0.3,3.2,1.1s0,1.7,0.4,1.6c0.4,0,3.1-1.5,5.4-2.4
			c2.3-0.9,3.9,0.8,4,2.1s-0.4,3-1.7,5.7s-2.5,7.3-0.8,8.6l-4.4-0.2c0,0-1-1.3,0.5-6s3.1-7.9,2-8c-1.1-0.2-3.5-0.1-6,2.8
			c0,0-3.3,7.6-3.4,8.9c0,1.3,0.4,2.2,0.6,2.3c0.2,0.1-5.8,0.1-5.8,0.1s0.2-0.2,0.4-0.8c0.2-0.6,4.6-12.3,4.6-12.6
			S119.5,16.3,118.4,15.1z"/>
		<path fill="#FFFFFF" d="M148.9,29.9c0,0,1.5-2.5,1.6-3.8c0,0,1.2,2.5,2.8,3.5s4.1-0.2,4.7-1.1c0.7-0.9,0.2-2,0-2.4
			c-0.2-0.4-2.8-1.8-3.7-2.6s-1.8-2-1.7-3.9c0.2-2,1.9-3,2.6-3.4c0.6-0.3,3.1-1.5,5.5-1.1c2.4,0.3,3.5,1.5,3.5,1.8
			c0,0.3-0.6,2.9-1.3,2.6c0,0,0.2-2.4-2.4-2.6c-2.7-0.2-4,0.7-4,1.4s0.3,1.3,1.7,2.3c1.4,1,3.2,1.9,3.6,3s1.3,2.2-0.7,5.1
			s-5,3.3-7.7,3.2C150.7,31.7,149.1,30.4,148.9,29.9z"/>
	</g>
	<g>
		<polygon fill="#FFFFFF" points="0,38.8 0.9,34.3 88.7,34.3 87.4,38.8 		"/>
		<g>
			<g>
				<path fill="#FFFFFF" d="M93.5,39.7h-1l0.8-4.8h-1.4l0.2-1h3.8l-0.2,1h-1.4L93.5,39.7z"/>
				<path fill="#FFFFFF" d="M97.1,37.4c0-0.5,0.1-1,0.3-1.5c0.2-0.7,0.5-1.2,0.9-1.5c0.4-0.3,0.9-0.5,1.4-0.5c0.6,0,1,0.2,1.4,0.6
					c0.4,0.4,0.6,1,0.6,1.8c0,0.7-0.1,1.3-0.4,1.9c-0.3,0.6-0.6,1-1,1.3c-0.4,0.3-0.8,0.4-1.3,0.4c-0.6,0-1-0.2-1.3-0.6
					C97.2,38.7,97.1,38.2,97.1,37.4z M98,37.4c0,0.4,0.1,0.8,0.3,1c0.2,0.3,0.5,0.4,0.8,0.4c0.2,0,0.5-0.1,0.7-0.3
					c0.2-0.2,0.4-0.5,0.6-0.9c0.2-0.4,0.3-0.9,0.3-1.3c0-0.5-0.1-0.8-0.3-1.1c-0.2-0.2-0.4-0.4-0.7-0.4c-0.2,0-0.5,0.1-0.7,0.3
					c-0.2,0.2-0.4,0.5-0.6,0.9S98,36.9,98,37.4z"/>
				<path fill="#FFFFFF" d="M104.2,33.9h1l-0.5,3.1l-0.1,0.8c0,0.1,0,0.1,0,0.2c0,0.2,0.1,0.4,0.2,0.6c0.1,0.1,0.3,0.2,0.6,0.2
					c0.2,0,0.4,0,0.5-0.1c0.1-0.1,0.3-0.2,0.4-0.4c0.1-0.2,0.2-0.6,0.3-1.1l0.6-3.2h1l-0.6,3.1c-0.1,0.6-0.2,1.1-0.3,1.4
					c-0.2,0.4-0.4,0.8-0.7,1c-0.3,0.2-0.7,0.3-1.1,0.3c-0.5,0-0.9-0.2-1.2-0.5c-0.3-0.3-0.5-0.7-0.5-1.3c0-0.2,0-0.5,0.1-1.1
					L104.2,33.9z"/>
				<path fill="#FFFFFF" d="M110.4,39.7h-1l1-5.8h2.1c0.4,0,0.7,0.1,0.9,0.2c0.2,0.1,0.3,0.3,0.5,0.5c0.1,0.2,0.2,0.5,0.2,0.9
					c0,0.5-0.1,0.9-0.4,1.2c-0.3,0.3-0.6,0.5-1.1,0.6c0.1,0.1,0.3,0.3,0.4,0.6c0.2,0.4,0.4,1.1,0.7,1.8h-1c0-0.2-0.2-0.6-0.4-1.3
					c-0.1-0.4-0.2-0.6-0.3-0.8c-0.1-0.1-0.2-0.2-0.2-0.2c-0.1,0-0.2-0.1-0.4-0.1h-0.4L110.4,39.7z M111,36.5h0.5c0.5,0,0.8,0,1-0.1
					c0.2-0.1,0.3-0.2,0.4-0.3c0.1-0.2,0.2-0.3,0.2-0.5c0-0.2-0.1-0.4-0.2-0.5c-0.1-0.1-0.3-0.1-0.6-0.1h-1.1L111,36.5z"/>
				<path fill="#FFFFFF" d="M115.8,37.8l0.9-0.1c0,0.3,0,0.5,0.1,0.6c0.1,0.1,0.2,0.2,0.3,0.3c0.1,0.1,0.3,0.1,0.5,0.1
					c0.3,0,0.5-0.1,0.7-0.2c0.2-0.1,0.2-0.3,0.2-0.5c0-0.1,0-0.3-0.1-0.4c-0.1-0.1-0.3-0.3-0.7-0.4c-0.5-0.2-0.8-0.4-0.9-0.6
					c-0.2-0.1-0.3-0.3-0.3-0.5c-0.1-0.2-0.1-0.4-0.1-0.7c0-0.5,0.2-0.9,0.5-1.2c0.3-0.3,0.7-0.5,1.2-0.5c0.5,0,0.9,0.2,1.3,0.5
					c0.3,0.3,0.5,0.7,0.5,1.3l-0.9,0c0-0.6-0.3-0.9-0.9-0.9c-0.3,0-0.5,0.1-0.6,0.2c-0.1,0.1-0.2,0.3-0.2,0.4c0,0.2,0.1,0.3,0.2,0.4
					c0.1,0.1,0.3,0.3,0.7,0.4c0.5,0.2,0.8,0.4,0.9,0.6c0.1,0.1,0.3,0.3,0.3,0.5c0.1,0.2,0.1,0.4,0.1,0.7c0,0.5-0.2,1-0.5,1.3
					c-0.3,0.3-0.8,0.5-1.4,0.5c-0.4,0-0.8-0.1-1.1-0.3c-0.3-0.2-0.5-0.4-0.6-0.7C115.8,38.5,115.8,38.2,115.8,37.8z"/>
				<path fill="#FFFFFF" d="M127.1,37.2l0.8,0.5c-0.2,0.3-0.4,0.6-0.6,0.9c0.1,0.2,0.3,0.3,0.6,0.5l-0.7,0.7
					c-0.2-0.1-0.5-0.3-0.7-0.6c-0.2,0.2-0.4,0.3-0.7,0.4c-0.3,0.1-0.6,0.1-0.9,0.1c-0.6,0-1-0.2-1.4-0.5c-0.4-0.3-0.5-0.7-0.5-1.2
					c0-0.2,0.1-0.5,0.2-0.7c0.1-0.2,0.2-0.4,0.4-0.6c0.2-0.2,0.5-0.4,0.9-0.6c-0.2-0.4-0.3-0.7-0.3-1c0-0.4,0.2-0.8,0.5-1
					c0.3-0.3,0.7-0.4,1.2-0.4c0.4,0,0.7,0.1,1,0.3c0.3,0.2,0.4,0.5,0.4,0.8c0,0.3-0.1,0.5-0.3,0.8c-0.2,0.3-0.6,0.5-1,0.8
					c0.2,0.3,0.3,0.6,0.6,0.9c0.1,0.2,0.2,0.3,0.3,0.4C126.7,37.7,126.9,37.5,127.1,37.2z M124.8,37c-0.5,0.3-0.8,0.6-0.8,1
					c0,0.3,0.1,0.5,0.2,0.6c0.2,0.1,0.4,0.2,0.6,0.2c0.3,0,0.6-0.1,1-0.3C125.4,38.1,125.1,37.6,124.8,37z M125.3,35.8
					c0.5-0.3,0.8-0.5,0.8-0.8c0-0.1,0-0.2-0.1-0.3c-0.1-0.1-0.2-0.1-0.3-0.1c-0.2,0-0.3,0.1-0.4,0.2c-0.1,0.1-0.2,0.2-0.2,0.4
					C125.1,35.3,125.2,35.5,125.3,35.8z"/>
				<path fill="#FFFFFF" d="M132.3,39.7h-1l0.8-4.8h-1.4l0.2-1h3.8l-0.2,1h-1.4L132.3,39.7z"/>
				<path fill="#FFFFFF" d="M136.6,39.7h-1l1-5.8h2.1c0.4,0,0.7,0.1,0.9,0.2c0.2,0.1,0.3,0.3,0.5,0.5c0.1,0.2,0.2,0.5,0.2,0.9
					c0,0.5-0.1,0.9-0.4,1.2c-0.3,0.3-0.6,0.5-1.1,0.6c0.1,0.1,0.3,0.3,0.4,0.6c0.2,0.4,0.4,1.1,0.7,1.8h-1c0-0.2-0.2-0.6-0.4-1.3
					c-0.1-0.4-0.2-0.6-0.3-0.8c-0.1-0.1-0.2-0.2-0.2-0.2c-0.1,0-0.2-0.1-0.4-0.1H137L136.6,39.7z M137.2,36.5h0.5c0.5,0,0.8,0,1-0.1
					c0.2-0.1,0.3-0.2,0.4-0.3c0.1-0.2,0.2-0.3,0.2-0.5c0-0.2-0.1-0.4-0.2-0.5c-0.1-0.1-0.3-0.1-0.6-0.1h-1.1L137.2,36.5z"/>
				<path fill="#FFFFFF" d="M144.6,38.4h-1.9l-0.6,1.3h-1l2.7-5.8h1.1l0.8,5.8h-0.9L144.6,38.4z M144.5,37.5l-0.3-2.3l-1,2.3H144.5z
					"/>
				<path fill="#FFFFFF" d="M149.5,39.7h-1l-0.8-5.8h1l0.6,4.4l2-4.4h1L149.5,39.7z"/>
				<path fill="#FFFFFF" d="M153,39.7l1-5.8h3.5l-0.2,1h-2.5l-0.2,1.3h2.4l-0.2,1h-2.4l-0.3,1.6h2.7l-0.2,1H153z"/>
				<path fill="#FFFFFF" d="M158.7,39.7l1-5.8h1l-0.8,4.8h2.4l-0.2,1H158.7z"/>
			</g>
		</g>
	</g>
	<g>
		<g>
			<path fill="#FFFFFF" d="M0.1,49.9L2.3,44h0.8l2.4,5.8H4.7L4,48.1H1.5l-0.6,1.8H0.1z M1.8,47.5h2l-0.6-1.6
				c-0.2-0.5-0.3-0.9-0.4-1.2c-0.1,0.4-0.2,0.7-0.3,1.1L1.8,47.5z"/>
			<path fill="#FFFFFF" d="M8.6,49.9v-4.2h0.6v0.6c0.1-0.2,0.3-0.4,0.5-0.5c0.2-0.1,0.5-0.2,0.8-0.2c0.3,0,0.6,0.1,0.8,0.2
				c0.2,0.1,0.3,0.3,0.4,0.5c0.3-0.5,0.8-0.7,1.3-0.7c0.4,0,0.7,0.1,1,0.3c0.2,0.2,0.3,0.6,0.3,1.1v2.9h-0.7v-2.7
				c0-0.3,0-0.5-0.1-0.6c0-0.1-0.1-0.2-0.3-0.3c-0.1-0.1-0.3-0.1-0.4-0.1c-0.3,0-0.5,0.1-0.7,0.3c-0.2,0.2-0.3,0.5-0.3,1v2.5h-0.7
				v-2.8c0-0.3-0.1-0.6-0.2-0.7c-0.1-0.2-0.3-0.2-0.6-0.2c-0.2,0-0.4,0.1-0.6,0.2c-0.2,0.1-0.3,0.3-0.4,0.5
				c-0.1,0.2-0.1,0.5-0.1,0.9v2.2H8.6z"/>
			<path fill="#FFFFFF" d="M18.9,48.5l0.7,0.1c-0.1,0.4-0.3,0.8-0.6,1c-0.3,0.2-0.7,0.4-1.2,0.4c-0.6,0-1.1-0.2-1.5-0.6
				c-0.4-0.4-0.5-0.9-0.5-1.6c0-0.7,0.2-1.3,0.6-1.7c0.4-0.4,0.8-0.6,1.4-0.6c0.6,0,1,0.2,1.4,0.6c0.4,0.4,0.5,0.9,0.5,1.6
				c0,0,0,0.1,0,0.2h-3.2c0,0.5,0.2,0.8,0.4,1.1c0.2,0.2,0.5,0.4,0.9,0.4c0.3,0,0.5-0.1,0.7-0.2C18.6,49,18.8,48.8,18.9,48.5z
				 M16.5,47.3h2.4c0-0.4-0.1-0.6-0.3-0.8c-0.2-0.3-0.5-0.4-0.9-0.4c-0.3,0-0.6,0.1-0.8,0.3C16.7,46.7,16.6,47,16.5,47.3z"/>
			<path fill="#FFFFFF" d="M20.9,49.9v-4.2h0.6v0.6c0.1-0.2,0.3-0.4,0.5-0.5c0.2-0.1,0.5-0.2,0.8-0.2c0.3,0,0.6,0.1,0.8,0.2
				c0.2,0.1,0.3,0.3,0.4,0.5c0.3-0.5,0.8-0.7,1.3-0.7c0.4,0,0.7,0.1,1,0.3c0.2,0.2,0.3,0.6,0.3,1.1v2.9h-0.7v-2.7
				c0-0.3,0-0.5-0.1-0.6c0-0.1-0.1-0.2-0.3-0.3c-0.1-0.1-0.3-0.1-0.4-0.1c-0.3,0-0.5,0.1-0.7,0.3c-0.2,0.2-0.3,0.5-0.3,1v2.5h-0.7
				v-2.8c0-0.3-0.1-0.6-0.2-0.7c-0.1-0.2-0.3-0.2-0.6-0.2c-0.2,0-0.4,0.1-0.6,0.2c-0.2,0.1-0.3,0.3-0.4,0.5
				c-0.1,0.2-0.1,0.5-0.1,0.9v2.2H20.9z"/>
			<path fill="#FFFFFF" d="M28.7,49.9H28V44h0.7v2.1c0.3-0.4,0.7-0.6,1.2-0.6c0.3,0,0.5,0.1,0.7,0.2c0.2,0.1,0.4,0.3,0.6,0.4
				c0.2,0.2,0.3,0.4,0.4,0.7c0.1,0.3,0.1,0.6,0.1,0.9c0,0.7-0.2,1.3-0.5,1.7c-0.4,0.4-0.8,0.6-1.3,0.6c-0.5,0-0.9-0.2-1.2-0.6V49.9z
				 M28.7,47.7c0,0.5,0.1,0.9,0.2,1.1c0.2,0.4,0.5,0.6,0.9,0.6c0.3,0,0.6-0.1,0.8-0.4c0.2-0.3,0.3-0.7,0.3-1.2c0-0.6-0.1-1-0.3-1.2
				c-0.2-0.3-0.5-0.4-0.8-0.4c-0.3,0-0.6,0.1-0.8,0.4C28.8,46.8,28.7,47.2,28.7,47.7z"/>
			<path fill="#FFFFFF" d="M36.1,48.5l0.7,0.1c-0.1,0.4-0.3,0.8-0.6,1C35.9,49.8,35.5,50,35,50c-0.6,0-1.1-0.2-1.5-0.6
				C33.2,49,33,48.5,33,47.8c0-0.7,0.2-1.3,0.6-1.7c0.4-0.4,0.8-0.6,1.4-0.6c0.6,0,1,0.2,1.4,0.6c0.4,0.4,0.5,0.9,0.5,1.6
				c0,0,0,0.1,0,0.2h-3.2c0,0.5,0.2,0.8,0.4,1.1c0.2,0.2,0.5,0.4,0.9,0.4c0.3,0,0.5-0.1,0.7-0.2C35.9,49,36,48.8,36.1,48.5z
				 M33.8,47.3h2.4c0-0.4-0.1-0.6-0.3-0.8c-0.2-0.3-0.5-0.4-0.9-0.4c-0.3,0-0.6,0.1-0.8,0.3C33.9,46.7,33.8,47,33.8,47.3z"/>
			<path fill="#FFFFFF" d="M37.9,49.9v-4.2h0.6v0.6c0.2-0.3,0.3-0.5,0.5-0.6c0.1-0.1,0.3-0.1,0.5-0.1c0.2,0,0.5,0.1,0.7,0.2L40,46.4
				c-0.2-0.1-0.4-0.2-0.5-0.2c-0.2,0-0.3,0-0.4,0.1c-0.1,0.1-0.2,0.2-0.3,0.4c-0.1,0.3-0.1,0.5-0.1,0.8v2.2H37.9z"/>
			<path fill="#FFFFFF" d="M42.5,47.8c0-0.8,0.2-1.4,0.7-1.7c0.4-0.3,0.8-0.5,1.3-0.5c0.6,0,1.1,0.2,1.4,0.6
				c0.4,0.4,0.6,0.9,0.6,1.6c0,0.5-0.1,1-0.2,1.3c-0.2,0.3-0.4,0.6-0.7,0.7c-0.3,0.2-0.7,0.3-1,0.3c-0.6,0-1.1-0.2-1.4-0.6
				C42.6,49,42.5,48.5,42.5,47.8z M43.2,47.8c0,0.5,0.1,0.9,0.4,1.2c0.2,0.3,0.5,0.4,0.9,0.4c0.4,0,0.7-0.1,0.9-0.4
				c0.2-0.3,0.4-0.7,0.4-1.2c0-0.5-0.1-0.9-0.4-1.2c-0.2-0.3-0.5-0.4-0.9-0.4c-0.4,0-0.7,0.1-0.9,0.4C43.3,46.8,43.2,47.2,43.2,47.8
				z"/>
			<path fill="#FFFFFF" d="M47.4,49.9v-3.7h-0.6v-0.6h0.6v-0.5c0-0.3,0-0.5,0.1-0.6c0.1-0.2,0.2-0.3,0.4-0.5
				c0.2-0.1,0.4-0.2,0.7-0.2c0.2,0,0.4,0,0.7,0.1l-0.1,0.6c-0.1,0-0.3,0-0.4,0c-0.2,0-0.4,0-0.5,0.1c-0.1,0.1-0.1,0.3-0.1,0.5v0.4
				H49v0.6h-0.8v3.7H47.4z"/>
			<path fill="#FFFFFF" d="M54.3,49.2l0.1,0.6c-0.2,0-0.4,0.1-0.5,0.1c-0.3,0-0.5,0-0.6-0.1c-0.1-0.1-0.2-0.2-0.3-0.3
				c-0.1-0.1-0.1-0.4-0.1-0.8v-2.4h-0.5v-0.6h0.5v-1l0.7-0.4v1.5h0.7v0.6h-0.7v2.5c0,0.2,0,0.3,0,0.4c0,0.1,0.1,0.1,0.1,0.1
				c0.1,0,0.1,0.1,0.2,0.1C54.1,49.3,54.2,49.2,54.3,49.2z"/>
			<path fill="#FFFFFF" d="M55,49.9V44h0.7v2.1c0.3-0.4,0.8-0.6,1.3-0.6c0.3,0,0.6,0.1,0.8,0.2s0.4,0.3,0.5,0.5
				c0.1,0.2,0.1,0.5,0.1,0.9v2.7h-0.7v-2.7c0-0.4-0.1-0.6-0.2-0.8c-0.2-0.2-0.4-0.2-0.7-0.2c-0.2,0-0.4,0.1-0.6,0.2
				c-0.2,0.1-0.3,0.3-0.4,0.4c-0.1,0.2-0.1,0.4-0.1,0.8v2.3H55z"/>
			<path fill="#FFFFFF" d="M62.4,48.5l0.7,0.1c-0.1,0.4-0.3,0.8-0.6,1c-0.3,0.2-0.7,0.4-1.2,0.4c-0.6,0-1.1-0.2-1.5-0.6
				c-0.4-0.4-0.5-0.9-0.5-1.6c0-0.7,0.2-1.3,0.6-1.7c0.4-0.4,0.8-0.6,1.4-0.6c0.6,0,1,0.2,1.4,0.6c0.4,0.4,0.5,0.9,0.5,1.6
				c0,0,0,0.1,0,0.2h-3.2c0,0.5,0.2,0.8,0.4,1.1c0.2,0.2,0.5,0.4,0.9,0.4c0.3,0,0.5-0.1,0.7-0.2C62.2,49,62.3,48.8,62.4,48.5z
				 M60.1,47.3h2.4c0-0.4-0.1-0.6-0.3-0.8c-0.2-0.3-0.5-0.4-0.9-0.4c-0.3,0-0.6,0.1-0.8,0.3C60.2,46.7,60.1,47,60.1,47.3z"/>
			<path fill="#FFFFFF" d="M65.9,48l0.7-0.1c0,0.3,0.1,0.5,0.2,0.7c0.1,0.2,0.3,0.3,0.6,0.5c0.3,0.1,0.6,0.2,0.9,0.2
				c0.3,0,0.6,0,0.8-0.1c0.2-0.1,0.4-0.2,0.5-0.4c0.1-0.2,0.2-0.3,0.2-0.5c0-0.2-0.1-0.3-0.2-0.5c-0.1-0.1-0.3-0.3-0.5-0.3
				c-0.2-0.1-0.5-0.2-1-0.3c-0.5-0.1-0.9-0.3-1.1-0.4c-0.3-0.1-0.5-0.3-0.6-0.5c-0.1-0.2-0.2-0.5-0.2-0.7c0-0.3,0.1-0.6,0.3-0.8
				c0.2-0.3,0.4-0.5,0.7-0.6c0.3-0.1,0.7-0.2,1.1-0.2c0.4,0,0.8,0.1,1.1,0.2c0.3,0.1,0.6,0.3,0.8,0.6c0.2,0.3,0.3,0.6,0.3,0.9
				l-0.7,0.1c0-0.4-0.2-0.6-0.4-0.8c-0.2-0.2-0.6-0.3-1-0.3c-0.5,0-0.8,0.1-1,0.3c-0.2,0.2-0.3,0.4-0.3,0.6c0,0.2,0.1,0.4,0.2,0.5
				c0.1,0.1,0.5,0.3,1.2,0.4c0.6,0.1,1.1,0.3,1.3,0.4c0.3,0.2,0.6,0.4,0.8,0.6c0.2,0.2,0.2,0.5,0.2,0.8c0,0.3-0.1,0.6-0.3,0.9
				c-0.2,0.3-0.4,0.5-0.8,0.6c-0.3,0.2-0.7,0.2-1.1,0.2c-0.5,0-1-0.1-1.3-0.2c-0.4-0.2-0.6-0.4-0.8-0.7C66,48.7,65.9,48.4,65.9,48z"
				/>
			<path fill="#FFFFFF" d="M71.5,44.9V44h0.7v0.8H71.5z M71.5,49.9v-4.2h0.7v4.2H71.5z"/>
			<path fill="#FFFFFF" d="M73.9,49.9v-4.2h0.6v0.6c0.3-0.5,0.8-0.7,1.3-0.7c0.3,0,0.5,0,0.7,0.1c0.2,0.1,0.4,0.2,0.5,0.4
				c0.1,0.1,0.2,0.3,0.2,0.5c0,0.1,0,0.4,0,0.7v2.6h-0.7v-2.6c0-0.3,0-0.5-0.1-0.7c-0.1-0.1-0.2-0.3-0.3-0.3
				c-0.1-0.1-0.3-0.1-0.5-0.1c-0.3,0-0.6,0.1-0.8,0.3c-0.2,0.2-0.3,0.6-0.3,1.1v2.3H73.9z"/>
			<path fill="#FFFFFF" d="M78.6,50.2l0.7,0.1c0,0.2,0.1,0.4,0.2,0.5c0.2,0.1,0.4,0.2,0.7,0.2c0.3,0,0.6-0.1,0.8-0.2
				c0.2-0.1,0.3-0.3,0.4-0.6c0-0.1,0.1-0.5,0.1-0.9c-0.3,0.4-0.7,0.6-1.2,0.6c-0.6,0-1-0.2-1.4-0.6c-0.3-0.4-0.5-0.9-0.5-1.5
				c0-0.4,0.1-0.8,0.2-1.1c0.1-0.3,0.4-0.6,0.6-0.8c0.3-0.2,0.6-0.3,1-0.3c0.5,0,0.9,0.2,1.2,0.6v-0.5h0.7v3.7
				c0,0.7-0.1,1.1-0.2,1.4c-0.1,0.3-0.3,0.5-0.6,0.7c-0.3,0.2-0.6,0.2-1.1,0.2c-0.5,0-0.9-0.1-1.2-0.3C78.7,51,78.6,50.7,78.6,50.2z
				 M79.2,47.7c0,0.6,0.1,1,0.3,1.2c0.2,0.3,0.5,0.4,0.8,0.4c0.3,0,0.6-0.1,0.8-0.4c0.2-0.3,0.3-0.7,0.3-1.2c0-0.5-0.1-0.9-0.3-1.2
				c-0.2-0.3-0.5-0.4-0.8-0.4c-0.3,0-0.6,0.1-0.8,0.4C79.3,46.8,79.2,47.2,79.2,47.7z"/>
			<path fill="#FFFFFF" d="M86.5,49.3c-0.3,0.2-0.5,0.4-0.8,0.5c-0.2,0.1-0.5,0.1-0.8,0.1c-0.5,0-0.8-0.1-1.1-0.3
				c-0.2-0.2-0.4-0.5-0.4-0.9c0-0.2,0-0.4,0.1-0.6c0.1-0.2,0.2-0.3,0.4-0.4c0.2-0.1,0.3-0.2,0.5-0.2c0.1,0,0.4-0.1,0.6-0.1
				c0.6-0.1,1-0.2,1.3-0.2c0-0.1,0-0.2,0-0.2c0-0.3-0.1-0.5-0.2-0.6c-0.2-0.2-0.5-0.2-0.8-0.2c-0.3,0-0.6,0.1-0.7,0.2
				c-0.2,0.1-0.3,0.3-0.4,0.6l-0.7-0.1c0.1-0.3,0.2-0.5,0.3-0.7c0.1-0.2,0.4-0.3,0.6-0.4c0.3-0.1,0.6-0.1,1-0.1c0.4,0,0.7,0,0.9,0.1
				c0.2,0.1,0.4,0.2,0.5,0.3c0.1,0.1,0.2,0.3,0.2,0.5c0,0.1,0,0.3,0,0.7v1c0,0.7,0,1.1,0,1.3c0,0.2,0.1,0.3,0.2,0.5h-0.7
				C86.5,49.7,86.5,49.5,86.5,49.3z M86.4,47.7c-0.3,0.1-0.7,0.2-1.2,0.3c-0.3,0-0.5,0.1-0.6,0.1c-0.1,0.1-0.2,0.1-0.3,0.2
				c-0.1,0.1-0.1,0.2-0.1,0.3c0,0.2,0.1,0.4,0.2,0.5c0.1,0.1,0.4,0.2,0.6,0.2c0.3,0,0.5-0.1,0.7-0.2c0.2-0.1,0.4-0.3,0.5-0.5
				c0.1-0.2,0.1-0.4,0.1-0.7V47.7z"/>
			<path fill="#FFFFFF" d="M88.7,51.5v-5.9h0.7v0.6c0.2-0.2,0.3-0.4,0.5-0.5c0.2-0.1,0.4-0.2,0.7-0.2c0.4,0,0.7,0.1,1,0.3
				c0.3,0.2,0.5,0.4,0.6,0.8c0.1,0.3,0.2,0.7,0.2,1.1c0,0.4-0.1,0.8-0.2,1.2c-0.2,0.3-0.4,0.6-0.7,0.8c-0.3,0.2-0.6,0.3-0.9,0.3
				c-0.2,0-0.5-0.1-0.6-0.2c-0.2-0.1-0.3-0.2-0.5-0.4v2.1H88.7z M89.3,47.8c0,0.5,0.1,0.9,0.3,1.2c0.2,0.3,0.5,0.4,0.8,0.4
				c0.3,0,0.6-0.1,0.8-0.4c0.2-0.3,0.3-0.7,0.3-1.3c0-0.5-0.1-0.9-0.3-1.2c-0.2-0.3-0.5-0.4-0.8-0.4c-0.3,0-0.6,0.1-0.8,0.4
				C89.4,46.8,89.3,47.2,89.3,47.8z"/>
			<path fill="#FFFFFF" d="M93.3,47.8c0-0.8,0.2-1.4,0.7-1.7c0.4-0.3,0.8-0.5,1.3-0.5c0.6,0,1.1,0.2,1.4,0.6
				c0.4,0.4,0.6,0.9,0.6,1.6c0,0.5-0.1,1-0.2,1.3c-0.2,0.3-0.4,0.6-0.7,0.7c-0.3,0.2-0.7,0.3-1,0.3c-0.6,0-1.1-0.2-1.4-0.6
				C93.5,49,93.3,48.5,93.3,47.8z M94,47.8c0,0.5,0.1,0.9,0.4,1.2c0.2,0.3,0.5,0.4,0.9,0.4c0.4,0,0.7-0.1,0.9-0.4
				c0.2-0.3,0.4-0.7,0.4-1.2c0-0.5-0.1-0.9-0.4-1.2c-0.2-0.3-0.5-0.4-0.9-0.4c-0.4,0-0.7,0.1-0.9,0.4C94.1,46.8,94,47.2,94,47.8z"/>
			<path fill="#FFFFFF" d="M98.3,49.9v-4.2H99v0.6c0.2-0.3,0.3-0.5,0.5-0.6c0.1-0.1,0.3-0.1,0.5-0.1c0.2,0,0.5,0.1,0.7,0.2l-0.2,0.7
				c-0.2-0.1-0.4-0.2-0.5-0.2c-0.2,0-0.3,0-0.4,0.1c-0.1,0.1-0.2,0.2-0.3,0.4c-0.1,0.3-0.1,0.5-0.1,0.8v2.2H98.3z"/>
			<path fill="#FFFFFF" d="M104.4,48.5l0.7,0.1c-0.1,0.4-0.3,0.8-0.6,1c-0.3,0.2-0.7,0.4-1.2,0.4c-0.6,0-1.1-0.2-1.5-0.6
				c-0.4-0.4-0.5-0.9-0.5-1.6c0-0.7,0.2-1.3,0.6-1.7c0.4-0.4,0.8-0.6,1.4-0.6c0.6,0,1,0.2,1.4,0.6c0.4,0.4,0.5,0.9,0.5,1.6
				c0,0,0,0.1,0,0.2H102c0,0.5,0.2,0.8,0.4,1.1c0.2,0.2,0.5,0.4,0.9,0.4c0.3,0,0.5-0.1,0.7-0.2C104.1,49,104.3,48.8,104.4,48.5z
				 M102,47.3h2.4c0-0.4-0.1-0.6-0.3-0.8c-0.2-0.3-0.5-0.4-0.9-0.4c-0.3,0-0.6,0.1-0.8,0.3C102.2,46.7,102.1,47,102,47.3z"/>
			<path fill="#FFFFFF" d="M107.4,49.9l2.2-5.8h0.8l2.4,5.8H112l-0.7-1.8h-2.4l-0.6,1.8H107.4z M109.1,47.5h2l-0.6-1.6
				c-0.2-0.5-0.3-0.9-0.4-1.2c-0.1,0.4-0.2,0.7-0.3,1.1L109.1,47.5z"/>
			<path fill="#FFFFFF" d="M113.6,44.9V44h0.7v0.8H113.6z M113.6,49.9v-4.2h0.7v4.2H113.6z"/>
			<path fill="#FFFFFF" d="M115.8,49.9v-4.2h0.6v0.6c0.2-0.3,0.3-0.5,0.5-0.6c0.1-0.1,0.3-0.1,0.5-0.1c0.2,0,0.5,0.1,0.7,0.2
				l-0.2,0.7c-0.2-0.1-0.4-0.2-0.5-0.2c-0.2,0-0.3,0-0.4,0.1c-0.1,0.1-0.2,0.2-0.3,0.4c-0.1,0.3-0.1,0.5-0.1,0.8v2.2H115.8z"/>
			<path fill="#FFFFFF" d="M119,49.9V44h0.7v5.8H119z"/>
			<path fill="#FFFFFF" d="M120.8,44.9V44h0.7v0.8H120.8z M120.8,49.9v-4.2h0.7v4.2H120.8z"/>
			<path fill="#FFFFFF" d="M123.2,49.9v-4.2h0.6v0.6c0.3-0.5,0.8-0.7,1.3-0.7c0.3,0,0.5,0,0.7,0.1c0.2,0.1,0.4,0.2,0.5,0.4
				c0.1,0.1,0.2,0.3,0.2,0.5c0,0.1,0,0.4,0,0.7v2.6h-0.7v-2.6c0-0.3,0-0.5-0.1-0.7c-0.1-0.1-0.2-0.3-0.3-0.3
				c-0.1-0.1-0.3-0.1-0.5-0.1c-0.3,0-0.6,0.1-0.8,0.3c-0.2,0.2-0.3,0.6-0.3,1.1v2.3H123.2z"/>
			<path fill="#FFFFFF" d="M130.9,48.5l0.7,0.1c-0.1,0.4-0.3,0.8-0.6,1c-0.3,0.2-0.7,0.4-1.2,0.4c-0.6,0-1.1-0.2-1.5-0.6
				c-0.4-0.4-0.5-0.9-0.5-1.6c0-0.7,0.2-1.3,0.6-1.7c0.4-0.4,0.8-0.6,1.4-0.6c0.6,0,1,0.2,1.4,0.6c0.4,0.4,0.5,0.9,0.5,1.6
				c0,0,0,0.1,0,0.2h-3.2c0,0.5,0.2,0.8,0.4,1.1c0.2,0.2,0.5,0.4,0.9,0.4c0.3,0,0.5-0.1,0.7-0.2C130.7,49,130.8,48.8,130.9,48.5z
				 M128.6,47.3h2.4c0-0.4-0.1-0.6-0.3-0.8c-0.2-0.3-0.5-0.4-0.9-0.4c-0.3,0-0.6,0.1-0.8,0.3C128.7,46.7,128.6,47,128.6,47.3z"/>
			<path fill="#FFFFFF" d="M132.7,48.6l0.7-0.1c0,0.3,0.2,0.5,0.3,0.7c0.2,0.2,0.4,0.2,0.8,0.2c0.3,0,0.6-0.1,0.7-0.2
				c0.2-0.1,0.2-0.3,0.2-0.5c0-0.2-0.1-0.3-0.2-0.4c-0.1-0.1-0.3-0.1-0.7-0.2c-0.5-0.1-0.9-0.2-1.1-0.3c-0.2-0.1-0.4-0.2-0.5-0.4
				c-0.1-0.2-0.2-0.4-0.2-0.6c0-0.2,0-0.4,0.1-0.5c0.1-0.2,0.2-0.3,0.4-0.4c0.1-0.1,0.3-0.2,0.5-0.2c0.2-0.1,0.4-0.1,0.6-0.1
				c0.3,0,0.6,0,0.9,0.1c0.3,0.1,0.4,0.2,0.6,0.4c0.1,0.2,0.2,0.4,0.2,0.7l-0.7,0.1c0-0.2-0.1-0.4-0.3-0.5c-0.2-0.1-0.4-0.2-0.6-0.2
				c-0.3,0-0.6,0.1-0.7,0.2c-0.1,0.1-0.2,0.2-0.2,0.4c0,0.1,0,0.2,0.1,0.3c0.1,0.1,0.2,0.1,0.3,0.2c0.1,0,0.3,0.1,0.6,0.2
				c0.5,0.1,0.9,0.2,1.1,0.3c0.2,0.1,0.4,0.2,0.5,0.4c0.1,0.2,0.2,0.4,0.2,0.6c0,0.2-0.1,0.5-0.2,0.7s-0.3,0.4-0.6,0.5
				c-0.3,0.1-0.6,0.2-0.9,0.2c-0.6,0-1-0.1-1.3-0.3C133,49.4,132.8,49.1,132.7,48.6z"/>
			<path fill="#FFFFFF" d="M141.3,47.6v-0.7l2.5,0v2.2c-0.4,0.3-0.8,0.5-1.2,0.7c-0.4,0.2-0.8,0.2-1.2,0.2c-0.6,0-1.1-0.1-1.6-0.4
				c-0.5-0.2-0.8-0.6-1.1-1.1c-0.2-0.5-0.4-1-0.4-1.6c0-0.6,0.1-1.1,0.4-1.6c0.2-0.5,0.6-0.9,1-1.1c0.4-0.2,1-0.4,1.5-0.4
				c0.4,0,0.8,0.1,1.1,0.2c0.3,0.1,0.6,0.3,0.8,0.6c0.2,0.2,0.3,0.6,0.4,1l-0.7,0.2c-0.1-0.3-0.2-0.5-0.3-0.7
				c-0.1-0.2-0.3-0.3-0.6-0.4c-0.2-0.1-0.5-0.2-0.8-0.2c-0.4,0-0.7,0.1-0.9,0.2c-0.3,0.1-0.5,0.2-0.6,0.4c-0.2,0.2-0.3,0.4-0.4,0.6
				c-0.1,0.4-0.2,0.8-0.2,1.2c0,0.5,0.1,1,0.3,1.3c0.2,0.4,0.4,0.6,0.8,0.8c0.3,0.2,0.7,0.3,1.1,0.3c0.3,0,0.7-0.1,1-0.2
				c0.3-0.1,0.6-0.3,0.7-0.4v-1.1H141.3z"/>
			<path fill="#FFFFFF" d="M145,49.9v-4.2h0.6v0.6c0.2-0.3,0.3-0.5,0.5-0.6c0.1-0.1,0.3-0.1,0.5-0.1c0.2,0,0.5,0.1,0.7,0.2l-0.2,0.7
				c-0.2-0.1-0.4-0.2-0.5-0.2c-0.2,0-0.3,0-0.4,0.1c-0.1,0.1-0.2,0.2-0.3,0.4c-0.1,0.3-0.1,0.5-0.1,0.8v2.2H145z"/>
			<path fill="#FFFFFF" d="M147.8,47.8c0-0.8,0.2-1.4,0.7-1.7c0.4-0.3,0.8-0.5,1.3-0.5c0.6,0,1.1,0.2,1.4,0.6
				c0.4,0.4,0.6,0.9,0.6,1.6c0,0.5-0.1,1-0.2,1.3c-0.2,0.3-0.4,0.6-0.7,0.7c-0.3,0.2-0.7,0.3-1,0.3c-0.6,0-1.1-0.2-1.4-0.6
				C148,49,147.8,48.5,147.8,47.8z M148.6,47.8c0,0.5,0.1,0.9,0.4,1.2c0.2,0.3,0.5,0.4,0.9,0.4c0.4,0,0.7-0.1,0.9-0.4
				c0.2-0.3,0.4-0.7,0.4-1.2c0-0.5-0.1-0.9-0.4-1.2c-0.2-0.3-0.5-0.4-0.9-0.4c-0.4,0-0.7,0.1-0.9,0.4
				C148.7,46.8,148.6,47.2,148.6,47.8z"/>
			<path fill="#FFFFFF" d="M155.8,49.9v-0.6c-0.3,0.5-0.8,0.7-1.3,0.7c-0.2,0-0.5,0-0.7-0.1c-0.2-0.1-0.4-0.2-0.5-0.4
				c-0.1-0.1-0.2-0.3-0.2-0.5c0-0.1,0-0.4,0-0.7v-2.6h0.7V48c0,0.4,0,0.6,0,0.8c0,0.2,0.1,0.3,0.3,0.4c0.1,0.1,0.3,0.2,0.5,0.2
				c0.2,0,0.4-0.1,0.6-0.2c0.2-0.1,0.3-0.3,0.4-0.5c0.1-0.2,0.1-0.5,0.1-0.8v-2.3h0.7v4.2H155.8z"/>
			<path fill="#FFFFFF" d="M158.1,51.5v-5.9h0.7v0.6c0.2-0.2,0.3-0.4,0.5-0.5c0.2-0.1,0.4-0.2,0.7-0.2c0.4,0,0.7,0.1,1,0.3
				c0.3,0.2,0.5,0.4,0.6,0.8c0.1,0.3,0.2,0.7,0.2,1.1c0,0.4-0.1,0.8-0.2,1.2c-0.2,0.3-0.4,0.6-0.7,0.8c-0.3,0.2-0.6,0.3-0.9,0.3
				c-0.2,0-0.5-0.1-0.6-0.2c-0.2-0.1-0.3-0.2-0.5-0.4v2.1H158.1z M158.7,47.8c0,0.5,0.1,0.9,0.3,1.2c0.2,0.3,0.5,0.4,0.8,0.4
				c0.3,0,0.6-0.1,0.8-0.4c0.2-0.3,0.3-0.7,0.3-1.3c0-0.5-0.1-0.9-0.3-1.2c-0.2-0.3-0.5-0.4-0.8-0.4c-0.3,0-0.6,0.1-0.8,0.4
				C158.8,46.8,158.7,47.2,158.7,47.8z"/>
		</g>
	</g>
</g>
</svg>
